<?xml version="1.0" encoding="utf-8"?>
<!-- Generator: Adobe Illustrator 16.0.0, SVG Export Plug-In . SVG Version: 6.00 Build 0)  -->
<!DOCTYPE svg PUBLIC "-//W3C//DTD SVG 1.1//EN" "http://www.w3.org/Graphics/SVG/1.1/DTD/svg11.dtd">
<svg version="1.1" id="Layer_1" xmlns="http://www.w3.org/2000/svg" xmlns:xlink="http://www.w3.org/1999/xlink" x="0px" y="0px"
	 width="128px" height="128px" viewBox="0 0 128 128" enable-background="new 0 0 128 128" xml:space="preserve">
<g id="Background">
	<rect fill-opacity="0" width="128" height="128"/>
</g>
<g id="Background_1_">
	<path fill="#737370" d="M18.092,6h91.811C116.552,6,122,11.441,122,18.096v91.806c0,6.656-5.448,12.098-12.098,12.098H18.092
		C11.436,122,6,116.559,6,109.902V18.096C6,11.441,11.436,6,18.092,6"/>
	<path fill-rule="evenodd" clip-rule="evenodd" fill="#82D1F5" d="M122,65.459l-21.552,9.807c-0.657-0.962-1.392-1.853-2.203-2.666
		c-3.314-3.314-7.895-5.369-12.96-5.369c-5.033,0-9.613,2.055-12.928,5.369h-0.015l-0.047,0.047l-15.21-18.68
		c2.938-3.251,4.721-7.558,4.721-12.263c0-3.697-1.359-6.933-3.236-9.809L82.378,6H71.123L52.396,26.024
		c-2.658-1.523-5.597-2.633-8.895-2.633c-5.034,0-9.613,2.056-12.928,5.361h-0.031c-3.298,3.307-5.361,7.886-5.361,12.951
		c0,1.242,0.14,2.47,0.375,3.642L6,54.271v9.934l23.51-10.723c0.329,0.399,0.673,0.782,1.032,1.149l0.031,0.024
		c3.314,3.306,7.894,5.36,12.928,5.36c2.11,0,4.126-0.358,6.018-1.016l17.993,22.111c-0.344,1.423-0.531,2.908-0.531,4.432
		c0,5.042,2.048,9.621,5.362,12.936l0.015,0.016c3.314,3.298,7.895,5.362,12.928,5.362c5.065,0,9.646-2.064,12.96-5.362v-0.016
		c3.297-3.314,5.361-7.894,5.361-12.936c0-0.586-0.031-1.165-0.078-1.743L122,75.386V65.459z M50.051,48.246l-0.015-0.007
		c-1.672,1.665-3.986,2.703-6.534,2.703s-4.861-1.031-6.535-2.688l-0.015-0.015c-1.657-1.673-2.689-3.987-2.689-6.535
		c0-2.555,1.032-4.87,2.704-6.534l-0.015-0.015c1.672-1.657,4.002-2.689,6.55-2.689s4.862,1.032,6.534,2.705
		c1.672,1.665,2.705,3.979,2.705,6.534C52.74,44.251,51.708,46.573,50.051,48.246z M91.836,92.086l-0.017-0.009
		c-1.656,1.665-3.97,2.704-6.534,2.704c-2.548,0-4.861-1.023-6.533-2.68l-0.017-0.024c-1.656-1.665-2.688-3.978-2.688-6.534
		c0-2.548,1.048-4.869,2.705-6.533v-0.008c1.672-1.665,3.985-2.697,6.533-2.697c2.564,0,4.878,1.04,6.534,2.705
		c1.673,1.664,2.704,3.985,2.704,6.533C94.523,88.1,93.492,90.421,91.836,92.086z"/>
</g>
</svg>
